<svg id="Logo" xmlns="http://www.w3.org/2000/svg" viewBox="0 0 511.08 127.56"
     style="height: 38px; fill: #FFF">
    <path class="cls-8"
          d="M197.57,65.67a21.37,21.37,0,0,1-.72,5.7l-9.72,34.38-13.74.24-9.66-34.62a22.84,22.84,0,0,1-.72-5.7h12.66l4.74,27.18h.3L186,65.67Z"
          transform="translate(-12.09 -22.29)"/>
    <path class="cls-8"
          d="M217.6,65.55l9.6,35.64a18.11,18.11,0,0,1,.78,4.68H216.52l-1.32-6.72h-9l-1.38,6.72h-11.4a21.8,21.8,0,0,1,.66-4.56l10.08-35.52ZM208,90.45h5.46l-2.34-13.62h-.3Z"
          transform="translate(-12.09 -22.29)"/>
    <path class="cls-8"
          d="M242.53,65.67l8.52,17.58,2.76,7h.12l-.54-7.44V65.67h9.84v40.2H251.65l-9.54-19L239.35,80h-.18l.6,7.14v18.78h-9.84V65.67Z"
          transform="translate(-12.09 -22.29)"/>
    <path class="cls-8"
          d="M290.65,65.13c15.3,0,20.64,8.34,20.64,20,0,11.34-5.94,21.24-21.72,21.24a104.92,104.92,0,0,1-11.94-.84V66.09A83.07,83.07,0,0,1,290.65,65.13Zm5.46,29.76c1.8-2,2.7-6.06,2.7-9.42,0-6.18-1.74-11-7.32-11-.42,0-1.2,0-2.1.06V97.11h2.1A5.62,5.62,0,0,0,296.11,94.89Z"
          transform="translate(-12.09 -22.29)"/>
    <path class="cls-8"
          d="M339.27,65.67l-.54,8.94h-12.9v6.3h9.54v8.94h-9.54v7.08h12.9l.54,8.94h-25.2V65.67Z"
          transform="translate(-12.09 -22.29)"/>
    <path class="cls-8"
          d="M354.33,65.13c11.28,0,18.9,3.54,18.9,13.2a14.06,14.06,0,0,1-5.52,11.58l5.52,12.36a9.23,9.23,0,0,1,1,3.6H362.37l-5-12.66a23.34,23.34,0,0,1-2.64-.18v12.84H342.93V66.09A81.48,81.48,0,0,1,354.33,65.13Zm4.86,18.42c.78-.66,1.56-1.86,1.56-4.44s-.84-4.68-4.26-4.68c-.3,0-1,0-1.8.06v9.84a8.45,8.45,0,0,0,1.2.06A5,5,0,0,0,359.19,83.55Z"
          transform="translate(-12.09 -22.29)"/>
    <path class="cls-8"
          d="M418.89,65.67v40.2H407.13v-16h-8.52v16H386.85V65.67h11.76V80.91h8.52V65.67Z"
          transform="translate(-12.09 -22.29)"/>
    <path class="cls-8"
          d="M449.11,65.67l-.54,8.94h-12.9v6.3h9.54v8.94h-9.54v7.08h12.9l.54,8.94h-25.2V65.67Z"
          transform="translate(-12.09 -22.29)"/>
    <path class="cls-8" d="M464.52,65.67V96.93h10l-.67,8.94H452.76V65.67Z"
          transform="translate(-12.09 -22.29)"/>
    <path class="cls-8"
          d="M520.11,65.67l2.82,35.76c.12,1.44.24,2.88.24,4.44H512.79l-1.62-29h-.3l-4.44,29H492.87l-4.2-29h-.3l-1.62,29H476.49c0-1.68.18-3.3.3-5l3.78-35.16h15.9l3.78,27.48h.3l3.66-27.48Z"
          transform="translate(-12.09 -22.29)"/>
    <path style="fill: #009fe3;"
          d="M98.61,81.34c1.19,12.73-1.9,23.38-9.67,29.34-16.89,13-49.49-1.17-72.81-31.56-1.42-1.85-2.76-3.71-4-5.58A114.69,114.69,0,0,0,24.93,106C44.09,139.2,74.57,157.46,93,146.82,108.88,137.65,110.66,110,98.61,81.34Z"
          transform="translate(-12.09 -22.29)"/>
    <path style="fill: #006db1;"
          d="M88.88,127.61c12-7.64,15.1-25.8,9.73-46.26,1.19,12.72-1.9,23.37-9.67,29.33-16.89,13-49.49-1.17-72.81-31.56q-2.11-2.76-4-5.57a110,110,0,0,0,9.71,19C41.25,123.14,71.29,138.83,88.88,127.61Z"
          transform="translate(-12.09 -22.29)"/>
    <path style="fill: #e30613;"
          d="M69,64.31c10.43-7.39,21.2-10,30.25-6.3,19.67,8.15,23.73,43.45,9.06,78.84-.88,2.15-1.82,4.24-2.8,6.29a114.44,114.44,0,0,0,21.7-27.36C146.4,82.6,147,47.07,128.55,36.43,112.67,27.26,87.86,39.54,69,64.31Z"
          transform="translate(-12.09 -22.29)"/>
    <path style="fill: #b61615;"
          d="M114,49.6c-12.61-6.55-29.89-.18-44.92,14.71,10.42-7.39,21.19-10,30.24-6.3,19.67,8.15,23.73,43.45,9.06,78.84-.88,2.15-1.82,4.24-2.8,6.28a109.77,109.77,0,0,0,11.63-17.91C133.92,93.08,132.49,59.23,114,49.6Z"
          transform="translate(-12.09 -22.29)"/>
    <path style="fill: #ef7d00;"
          d="M69.08,98.43c-11.62-5.33-19.3-13.33-20.58-23-2.78-21.11,25.76-42.27,63.74-47.27,2.31-.31,4.59-.54,6.85-.72a114.45,114.45,0,0,0-34.55-5.11c-38.31,0-69.37,17.26-69.37,38.55C15.17,79.18,38.21,94.52,69.08,98.43Z"
          transform="translate(-12.09 -22.29)"/>
    <path style="fill: #d74918;"
          d="M48.5,75.39c-2.78-21.11,25.76-42.27,63.74-47.27,2.3-.31,4.59-.54,6.85-.72a110.85,110.85,0,0,0-21.34-1.11C61.55,27.86,33,46,33.87,66.87c.63,14.2,14.79,26,35.2,31.55C57.46,93.1,49.78,85.09,48.5,75.39Z"
          transform="translate(-12.09 -22.29)"/>
</svg>
